<?xml version="1.0" encoding="UTF-8" standalone="no"?>
<!-- Created with Inkscape (http://www.inkscape.org/) -->

<svg
   width="300"
   height="300"
   viewBox="0 0 79.374998 79.375"
   version="1.1"
   id="svg5"
   inkscape:version="1.2.2 (b0a8486541, 2022-12-01, custom)"
   sodipodi:docname="icon.svg"
   xml:space="preserve"
   inkscape:export-filename="../9767942a/icon.png"
   inkscape:export-xdpi="96"
   inkscape:export-ydpi="96"
   xmlns:inkscape="http://www.inkscape.org/namespaces/inkscape"
   xmlns:sodipodi="http://sodipodi.sourceforge.net/DTD/sodipodi-0.dtd"
   xmlns="http://www.w3.org/2000/svg"
   xmlns:svg="http://www.w3.org/2000/svg"><sodipodi:namedview
     id="namedview7"
     pagecolor="#ffffff"
     bordercolor="#000000"
     borderopacity="0.25"
     inkscape:showpageshadow="2"
     inkscape:pageopacity="0.0"
     inkscape:pagecheckerboard="0"
     inkscape:deskcolor="#d1d1d1"
     inkscape:document-units="mm"
     showgrid="false"
     inkscape:zoom="1.59"
     inkscape:cx="111.00629"
     inkscape:cy="150"
     inkscape:window-width="1318"
     inkscape:window-height="697"
     inkscape:window-x="0"
     inkscape:window-y="0"
     inkscape:window-maximized="1"
     inkscape:current-layer="layer1"
     showguides="true"><sodipodi:guide
       position="0,70.805162"
       orientation="1,0"
       id="guide129"
       inkscape:locked="false" /><sodipodi:guide
       position="-2.3296645,79.291798"
       orientation="0,-1"
       id="guide131"
       inkscape:locked="false" /><sodipodi:guide
       position="83.119102,-4.1881104e-08"
       orientation="0,-1"
       id="guide133"
       inkscape:locked="false" /><sodipodi:guide
       position="79.291796,-5.9073638"
       orientation="1,0"
       id="guide135"
       inkscape:locked="false" /></sodipodi:namedview><defs
     id="defs2"><filter
       style="color-interpolation-filters:sRGB;"
       inkscape:label="Invert"
       id="filter462"
       x="0"
       y="0"
       width="1"
       height="1"><feColorMatrix
         values="1 0 0 0 0 0 1 0 0 0 0 0 1 0 0 -0.21 -0.72 -0.07 2 0 "
         result="fbSourceGraphic"
         id="feColorMatrix460" /><feColorMatrix
         result="fbSourceGraphicAlpha"
         in="fbSourceGraphic"
         values="0 0 0 -1 0 0 0 0 -1 0 0 0 0 -1 0 0 0 0 1 0"
         id="feColorMatrix510" /><feColorMatrix
         id="feColorMatrix512"
         type="hueRotate"
         values="180"
         result="color1"
         in="fbSourceGraphic" /><feColorMatrix
         id="feColorMatrix514"
         values="-1 0 0 0 1 0 -1 0 0 1 0 0 -1 0 1 0.21 0.72 0.07 1 0 "
         result="fbSourceGraphic" /><feColorMatrix
         result="fbSourceGraphicAlpha"
         in="fbSourceGraphic"
         values="0 0 0 -1 0 0 0 0 -1 0 0 0 0 -1 0 0 0 0 1 0"
         id="feColorMatrix538" /><feColorMatrix
         id="feColorMatrix540"
         type="hueRotate"
         values="180"
         result="color1"
         in="fbSourceGraphic" /><feColorMatrix
         id="feColorMatrix542"
         values="-1 0 0 0 1 0 -1 0 0 1 0 0 -1 0 1 0.21 0.72 0.07 1 0 "
         result="color2" /></filter></defs><g
     inkscape:label="fundo"
     inkscape:groupmode="layer"
     id="layer1"><g
       id="g546"
       transform="translate(0.34521157,0.82297477)"><path
         style="fill:#241c1c;stroke:#236892;stroke-width:0.105362;stroke-linecap:round;paint-order:markers fill stroke"
         id="path379"
         sodipodi:type="arc"
         sodipodi:cx="39.562969"
         sodipodi:cy="60.384079"
         sodipodi:rx="32.205433"
         sodipodi:ry="8.90944"
         sodipodi:start="4.37129"
         sodipodi:end="4.3653237"
         sodipodi:open="true"
         sodipodi:arc-type="arc"
         d="M 28.789512,51.987933 A 32.205433,8.90944 0 0 1 69.896867,57.391147 32.205433,8.90944 0 0 1 50.426916,68.771296 32.205433,8.90944 0 0 1 9.2614805,63.402032 32.205433,8.90944 0 0 1 28.608628,52.005865" /><path
         style="fill:#ffff00;stroke-width:0.264583"
         d="M 37.669819,58.214592 C 29.543535,47.238032 24.064652,36.94229 22.727068,30.134653 c -0.827011,-4.209072 0.186677,-8.856629 2.765181,-12.677808 2.996676,-4.440881 7.652841,-7.090322 13.143923,-7.4791222 3.144946,-0.222681 5.606635,0.3055292 8.848632,1.8986712 3.429966,1.685511 5.828971,4.09062 7.542651,7.561828 1.5686,3.17735 2.09854,5.658389 1.87367,8.771968 -0.45587,6.312173 -4.880224,15.32767 -13.89447,28.312762 -0.213156,0.307051 -0.927531,1.266872 -1.5875,2.132933 -0.659966,0.86606 -1.320329,1.733261 -1.467469,1.927114 -0.204092,0.268877 -0.745191,-0.292743 -2.281867,-2.368407 z m 5.55226,-23.465616 c 2.858293,-1.469892 4.510542,-3.971719 4.734396,-7.168787 0.224565,-3.207257 -1.461784,-6.148352 -4.485955,-7.823775 -1.241076,-0.687568 -1.653413,-0.774892 -3.648181,-0.772599 -1.778371,0.002 -2.525776,0.129343 -3.571875,0.608369 -1.674162,0.766627 -3.157833,2.19177 -4.046592,3.886963 -0.595399,1.135648 -0.695096,1.660001 -0.704283,3.704167 -0.0094,2.082797 0.07757,2.547057 0.693581,3.704166 0.964059,1.810878 2.483168,3.206007 4.345639,3.990978 2.012064,0.848019 4.890919,0.792245 6.68327,-0.129482 z"
         id="path458" /></g></g></svg>
